{"title":"The.71st.Annual.Golden.Globe.Awards.2014.HDTV.XviD-FBRD [Gr Subs","uid":9527577,"size":1282741210,"categoryP":"video","categoryS":"hd___tv_shows","magnet":"?xt=urn:btih:9f308be590a8d0656bb0ade4cfb8265e067b998d&amp;dn=The.71st.Annual.Golden.Globe.Awards.2014.HDTV.XviD-FBRD+%5BGr+Subs&amp;tr=udp%3A%2F%2Ftracker.openbittorrent.com%3A80&amp;tr=udp%3A%2F%2Fopen.demonii.com%3A1337&amp;tr=udp%3A%2F%2Ftracker.coppersurfer.tk%3A6969&amp;tr=udp%3A%2F%2Fexodus.desync.com%3A6969","seeders":1,"leechers":0,"uploader":null,"files":1,"time":1390777088,"description":"The.71st.Annual.Golden.Globe.Awards.2014.HDTV.XviD-FBRD\n\n~F R E E B I R D S   T E A M~\n...presents...\n\nThe 71st Annual Golden Globe Awards\n~2014~\n\nGreek Subs Emb.\n\n~ Serious Jobs, Require serious Efforts ~\n--Keep p2p spirit alive--\n\nGeneral\nFormat                           : AVI\nFormat/Info                      : Audio Video Interleave\nFile size                        : 1.19 GiB\nDuration                         : 2h 19mn\nOverall bit rate                 : 1 229 Kbps\nWriting library                  : VirtualDub build 32817/release\n\nVideo\nFormat                           : MPEG-4 Visual\nFormat profile                   : Advanced Simple@L5\nFormat settings, BVOP            : Yes\nFormat settings, QPel            : No\nFormat settings, GMC             : No warppoints\nFormat settings, Matrix          : Default (H.263)\nMuxing mode                      : Packed bitstream\nCodec ID                         : XVID\nCodec ID/Hint                    : XviD\nDuration                         : 2h 19mn\nBit rate                         : 1 091 Kbps\nWidth                            : 624 pixels\nHeight                           : 352 pixels\nDisplay aspect ratio             : 16:9\nFrame rate                       : 25.000 fps\nColor space                      : YUV\nChroma subsampling               : 4:2:0\nBit depth                        : 8 bits\nScan type                        : Progressive\nBits/(Pixel*Frame)               : 0.199\nStream size                      : 1.06 GiB (89%)\nWriting library                  : XviD 1.2.1 (UTC 2008-12-04)\n\nAudio\nFormat                           : MPEG Audio\nFormat version                   : Version 1\nFormat profile                   : Layer 3\nMode                             : Joint stereo\nMode extension                   : MS Stereo\nCodec ID                         : 55\nCodec ID/Hint                    : MP3\nDuration                         : 2h 19mn\nBit rate mode                    : Constant\nBit rate                         : 128 Kbps\nChannel(s)                       : 2 channels\nSampling rate                    : 44.1 KHz\nStream size                      : 127 MiB (10%)\nAlignment                        : Split accross interleaves\nInterleave, duration             : 40 ms (1.00 video frame)\nInterleave, preload duration     : 500 ms\nWriting library                  : LAME3.99r\n\n\nEnjoy!\n\n\n","torrent":{"xt":"urn:btih:9f308be590a8d0656bb0ade4cfb8265e067b998d","amp;dn":"The.71st.Annual.Golden.Globe.Awards.2014.HDTV.XviD-FBRD+%5BGr+Subs","amp;tr":["udp%3A%2F%2Ftracker.openbittorrent.com%3A80","udp%3A%2F%2Fopen.demonii.com%3A1337","udp%3A%2F%2Ftracker.coppersurfer.tk%3A6969","udp%3A%2F%2Fexodus.desync.com%3A6969"],"infoHash":"9f308be590a8d0656bb0ade4cfb8265e067b998d","infoHashBuffer":{"type":"Buffer","data":[159,48,139,229,144,168,208,101,107,176,173,228,207,184,38,94,6,123,153,141]},"announce":[],"urlList":[]}}